<mxfile host="app.diagrams.net" modified="2023-12-25T15:52:31.034Z" agent="Mozilla/5.0 (Windows NT 10.0; Win64; x64) AppleWebKit/537.36 (KHTML, like Gecko) Chrome/120.0.0.0 Safari/537.36" etag="T_OW7BAf3laErPsHRq1t" version="22.1.11" type="google">
  <diagram name="第 1 页" id="W9f3RToeNmu4nPsQuLyr">
    <mxGraphModel grid="1" page="1" gridSize="10" guides="1" tooltips="1" connect="1" arrows="1" fold="1" pageScale="1" pageWidth="827" pageHeight="1169" math="0" shadow="0">
      <root>
        <mxCell id="0" />
        <mxCell id="1" parent="0" />
        <mxCell id="sT89LaiWiVv3Fd6UkNeW-17" value="" style="edgeStyle=orthogonalEdgeStyle;rounded=0;orthogonalLoop=1;jettySize=auto;html=1;" edge="1" parent="1" source="sT89LaiWiVv3Fd6UkNeW-2" target="sT89LaiWiVv3Fd6UkNeW-6">
          <mxGeometry relative="1" as="geometry" />
        </mxCell>
        <mxCell id="sT89LaiWiVv3Fd6UkNeW-2" value="輸入帳號" style="ellipse;whiteSpace=wrap;html=1;" vertex="1" parent="1">
          <mxGeometry x="250" y="100" width="90" height="50" as="geometry" />
        </mxCell>
        <mxCell id="sT89LaiWiVv3Fd6UkNeW-20" style="edgeStyle=orthogonalEdgeStyle;rounded=0;orthogonalLoop=1;jettySize=auto;html=1;exitX=1;exitY=0.5;exitDx=0;exitDy=0;entryX=1;entryY=0.5;entryDx=0;entryDy=0;" edge="1" parent="1" source="sT89LaiWiVv3Fd6UkNeW-3" target="sT89LaiWiVv3Fd6UkNeW-2">
          <mxGeometry relative="1" as="geometry">
            <Array as="points">
              <mxPoint x="390" y="200" />
              <mxPoint x="390" y="125" />
            </Array>
          </mxGeometry>
        </mxCell>
        <mxCell id="sT89LaiWiVv3Fd6UkNeW-3" value="" style="rhombus;whiteSpace=wrap;html=1;" vertex="1" parent="1">
          <mxGeometry x="250" y="180" width="90" height="40" as="geometry" />
        </mxCell>
        <mxCell id="sT89LaiWiVv3Fd6UkNeW-16" value="" style="edgeStyle=orthogonalEdgeStyle;rounded=0;orthogonalLoop=1;jettySize=auto;html=1;" edge="1" parent="1" source="sT89LaiWiVv3Fd6UkNeW-4" target="sT89LaiWiVv3Fd6UkNeW-2">
          <mxGeometry relative="1" as="geometry" />
        </mxCell>
        <mxCell id="sT89LaiWiVv3Fd6UkNeW-4" value="" style="ellipse;whiteSpace=wrap;html=1;aspect=fixed;fillColor=#000000;" vertex="1" parent="1">
          <mxGeometry x="150" y="100" width="50" height="50" as="geometry" />
        </mxCell>
        <mxCell id="sT89LaiWiVv3Fd6UkNeW-5" value="" style="ellipse;html=1;shape=endState;fillColor=#000000;strokeColor=#ff0000;" vertex="1" parent="1">
          <mxGeometry x="560" y="410" width="30" height="30" as="geometry" />
        </mxCell>
        <mxCell id="sT89LaiWiVv3Fd6UkNeW-18" value="" style="edgeStyle=orthogonalEdgeStyle;rounded=0;orthogonalLoop=1;jettySize=auto;html=1;" edge="1" parent="1" source="sT89LaiWiVv3Fd6UkNeW-6" target="sT89LaiWiVv3Fd6UkNeW-9">
          <mxGeometry relative="1" as="geometry" />
        </mxCell>
        <mxCell id="sT89LaiWiVv3Fd6UkNeW-6" value="輸入密碼" style="ellipse;whiteSpace=wrap;html=1;" vertex="1" parent="1">
          <mxGeometry x="250" y="250" width="90" height="60" as="geometry" />
        </mxCell>
        <mxCell id="sT89LaiWiVv3Fd6UkNeW-19" value="" style="edgeStyle=orthogonalEdgeStyle;rounded=0;orthogonalLoop=1;jettySize=auto;html=1;" edge="1" parent="1" source="sT89LaiWiVv3Fd6UkNeW-9" target="sT89LaiWiVv3Fd6UkNeW-10">
          <mxGeometry relative="1" as="geometry" />
        </mxCell>
        <mxCell id="sT89LaiWiVv3Fd6UkNeW-21" style="edgeStyle=orthogonalEdgeStyle;rounded=0;orthogonalLoop=1;jettySize=auto;html=1;exitX=1;exitY=0.5;exitDx=0;exitDy=0;entryX=1;entryY=0.5;entryDx=0;entryDy=0;" edge="1" parent="1" source="sT89LaiWiVv3Fd6UkNeW-9" target="sT89LaiWiVv3Fd6UkNeW-6">
          <mxGeometry relative="1" as="geometry">
            <Array as="points">
              <mxPoint x="400" y="370" />
              <mxPoint x="400" y="280" />
            </Array>
          </mxGeometry>
        </mxCell>
        <mxCell id="sT89LaiWiVv3Fd6UkNeW-9" value="" style="rhombus;whiteSpace=wrap;html=1;" vertex="1" parent="1">
          <mxGeometry x="250" y="350" width="90" height="40" as="geometry" />
        </mxCell>
        <mxCell id="sT89LaiWiVv3Fd6UkNeW-13" value="" style="edgeStyle=orthogonalEdgeStyle;rounded=0;orthogonalLoop=1;jettySize=auto;html=1;" edge="1" parent="1" source="sT89LaiWiVv3Fd6UkNeW-10" target="sT89LaiWiVv3Fd6UkNeW-11">
          <mxGeometry relative="1" as="geometry" />
        </mxCell>
        <mxCell id="sT89LaiWiVv3Fd6UkNeW-10" value="進入系統" style="ellipse;whiteSpace=wrap;html=1;" vertex="1" parent="1">
          <mxGeometry x="250" y="470" width="90" height="50" as="geometry" />
        </mxCell>
        <mxCell id="sT89LaiWiVv3Fd6UkNeW-14" value="" style="edgeStyle=orthogonalEdgeStyle;rounded=0;orthogonalLoop=1;jettySize=auto;html=1;" edge="1" parent="1" source="sT89LaiWiVv3Fd6UkNeW-11" target="sT89LaiWiVv3Fd6UkNeW-12">
          <mxGeometry relative="1" as="geometry" />
        </mxCell>
        <mxCell id="sT89LaiWiVv3Fd6UkNeW-11" value="車輛訊息管理" style="ellipse;whiteSpace=wrap;html=1;" vertex="1" parent="1">
          <mxGeometry x="390" y="470" width="90" height="50" as="geometry" />
        </mxCell>
        <mxCell id="sT89LaiWiVv3Fd6UkNeW-15" value="" style="edgeStyle=orthogonalEdgeStyle;rounded=0;orthogonalLoop=1;jettySize=auto;html=1;" edge="1" parent="1" source="sT89LaiWiVv3Fd6UkNeW-12" target="sT89LaiWiVv3Fd6UkNeW-5">
          <mxGeometry relative="1" as="geometry" />
        </mxCell>
        <mxCell id="sT89LaiWiVv3Fd6UkNeW-12" value="退出系統" style="ellipse;whiteSpace=wrap;html=1;" vertex="1" parent="1">
          <mxGeometry x="530" y="470" width="90" height="50" as="geometry" />
        </mxCell>
        <mxCell id="sT89LaiWiVv3Fd6UkNeW-22" value="否" style="text;html=1;align=center;verticalAlign=middle;resizable=0;points=[];autosize=1;strokeColor=none;fillColor=none;" vertex="1" parent="1">
          <mxGeometry x="340" y="170" width="40" height="30" as="geometry" />
        </mxCell>
        <mxCell id="sT89LaiWiVv3Fd6UkNeW-23" value="否" style="text;html=1;align=center;verticalAlign=middle;resizable=0;points=[];autosize=1;strokeColor=none;fillColor=none;" vertex="1" parent="1">
          <mxGeometry x="340" y="340" width="40" height="30" as="geometry" />
        </mxCell>
        <mxCell id="sT89LaiWiVv3Fd6UkNeW-25" value="是否存在" style="text;html=1;align=center;verticalAlign=middle;resizable=0;points=[];autosize=1;strokeColor=none;fillColor=none;" vertex="1" parent="1">
          <mxGeometry x="190" y="180" width="70" height="30" as="geometry" />
        </mxCell>
        <mxCell id="sT89LaiWiVv3Fd6UkNeW-26" value="密碼是否正確" style="text;html=1;align=center;verticalAlign=middle;resizable=0;points=[];autosize=1;strokeColor=none;fillColor=none;" vertex="1" parent="1">
          <mxGeometry x="170" y="340" width="100" height="30" as="geometry" />
        </mxCell>
      </root>
    </mxGraphModel>
  </diagram>
</mxfile>
